<svg width="184" height="86" xmlns="http://www.w3.org/2000/svg">
 <!-- Created with Method Draw - http://github.com/duopixel/Method-Draw/ -->

 <g>
  <title>background</title>
  <rect fill="none" id="canvas_background" height="88" width="186" y="-1" x="-1"/>
 </g>
 <g>
  <title>Layer 1</title>
  <path fill="#000000" d="m40.28125,50.23438l-6.76563,0l0,-22.59375l-26.75,0l0,22.59375l-6.76562,0l0,-49.67188l6.76562,0l0,22.15625l26.75,0l0,-22.15625l6.76563,0l0,49.67188zm42.74033,-49.67188l0,5.46875l-23.84375,0l0,16.5l19.29687,0l0,5.28125l-19.29687,0l0,16.9375l23.84375,0l0,5.48438l-30.60938,0l0,-49.67188l30.60938,0zm55.811,24.85938q0,5.57812 -1.76562,10.25q-1.76563,4.65625 -5,8.01562q-3.21875,3.35938 -7.75,5.21875q-4.51563,1.84375 -10,1.84375q-5.46875,0 -9.98438,-1.84375q-4.5,-1.85937 -7.73437,-5.21875q-3.21875,-3.35937 -4.98438,-8.01562q-1.76562,-4.67188 -1.76562,-10.25q0,-5.59375 1.76562,-10.25q1.76563,-4.65625 4.98438,-8.03125q3.23437,-3.39063 7.73437,-5.26563q4.51563,-1.875 9.98438,-1.875q5.48437,0 10,1.875q4.53125,1.875 7.75,5.26563q3.23437,3.375 5,8.03125q1.76562,4.65625 1.76562,10.25zm-6.90625,0q0,-4.57813 -1.25,-8.21875q-1.23437,-3.64063 -3.53125,-6.15625q-2.28125,-2.51563 -5.54687,-3.85938q-3.25,-1.35937 -7.28125,-1.35937q-3.98438,0 -7.25,1.35937q-3.25,1.34375 -5.5625,3.85938q-2.29688,2.51562 -3.54688,6.15625q-1.25,3.64062 -1.25,8.21875q0,4.5625 1.25,8.1875q1.25,3.625 3.54688,6.14062q2.3125,2.51563 5.5625,3.85938q3.26562,1.32812 7.25,1.32812q4.03125,0 7.28125,-1.32812q3.26562,-1.34375 5.54687,-3.85938q2.29688,-2.51562 3.53125,-6.14062q1.25,-3.625 1.25,-8.1875zm16.08963,24.8125l0,-49.67188l15.84372,0q4.57813,0 7.875,0.90625q3.3125,0.89063 5.4375,2.5625q2.14063,1.65625 3.15625,4.07813q1.03125,2.40625 1.03125,5.42187q0,1.82813 -0.57812,3.53125q-0.5625,1.70313 -1.73438,3.15625q-1.15625,1.45313 -2.90625,2.59375q-1.75,1.14063 -4.10937,1.875q5.45312,1.07813 8.21875,3.92188q2.78125,2.84375 2.78125,7.48437q0,3.15625 -1.17188,5.76563q-1.15625,2.59375 -3.39062,4.46875q-2.23438,1.85937 -5.48438,2.89062q-3.23437,1.01563 -7.39062,1.01563l-17.5781,0zm6.71872,-22.64063l0,17.29688l10.75,0q2.875,0 4.9375,-0.65625q2.0625,-0.65625 3.39063,-1.84375q1.34375,-1.20313 1.96875,-2.84375q0.625,-1.65625 0.625,-3.625q0,-3.84375 -2.71875,-6.07813q-2.71875,-2.25 -8.23438,-2.25l-10.71875,0zm0,-4.78125l8.875,0q2.84375,0 4.92188,-0.625q2.07812,-0.625 3.45312,-1.73437q1.375,-1.10938 2.03125,-2.6875q0.65625,-1.57813 0.65625,-3.4375q0,-4.375 -2.64062,-6.42188q-2.625,-2.04687 -8.17188,-2.04687l-9.125,0l0,16.95312z" fill-rule="nonzero" id="svg_2" stroke="null"/>
  <path fill="#000000" d="m2.45313,84.656251l-2.45313,0l0,-18.14063l2.45313,0l0,18.14063zm7.57263,-6.78125l0,6.78125l-2.45312,0l0,-18.14063l5.35937,0q1.71875,0 2.98438,0.40625q1.28125,0.39063 2.10937,1.125q0.84375,0.73438 1.25,1.78125q0.42188,1.03125 0.42188,2.29688q0,1.26562 -0.45313,2.32812q-0.4375,1.04688 -1.29687,1.8125q-0.84375,0.75 -2.10938,1.1875q-1.26562,0.42188 -2.90625,0.42188l-2.90625,0zm0,-1.95313l2.90625,0q1.04688,0 1.84375,-0.28125q0.8125,-0.28125 1.35938,-0.78125q0.54687,-0.5 0.82812,-1.1875q0.28125,-0.70312 0.28125,-1.54687q0,-1.73438 -1.07812,-2.70313q-1.0625,-0.96875 -3.23438,-0.96875l-2.90625,0l0,7.46875zm26.95758,-6.57812q-0.10937,0.1875 -0.25,0.28125q-0.125,0.09375 -0.32812,0.09375q-0.20313,0 -0.5,-0.20313q-0.28125,-0.21875 -0.71875,-0.46875q-0.4375,-0.26562 -1.04688,-0.48437q-0.60937,-0.21875 -1.48437,-0.21875q-0.82813,0 -1.46875,0.21875q-0.625,0.21875 -1.04688,0.60937q-0.42187,0.375 -0.64062,0.89063q-0.21875,0.51562 -0.21875,1.10937q0,0.75 0.375,1.25q0.375,0.5 0.98437,0.85938q0.625,0.35937 1.39063,0.625q0.78125,0.25 1.59375,0.53125q0.82812,0.28125 1.60937,0.625q0.78125,0.34375 1.39063,0.875q0.60937,0.53125 0.98437,1.3125q0.375,0.76562 0.375,1.89062q0,1.20313 -0.40625,2.25q-0.40625,1.03125 -1.1875,1.8125q-0.78125,0.76563 -1.92187,1.21875q-1.125,0.4375 -2.5625,0.4375q-1.76563,0 -3.21875,-0.64062q-1.4375,-0.64063 -2.46875,-1.73438l0.70312,-1.15625q0.10938,-0.14062 0.25,-0.23437q0.15625,-0.09375 0.32813,-0.09375q0.26562,0 0.60937,0.28125q0.34375,0.28125 0.84375,0.625q0.51563,0.34375 1.25,0.625q0.73438,0.28125 1.78125,0.28125q0.875,0 1.54688,-0.23438q0.6875,-0.23437 1.15625,-0.67187q0.48437,-0.4375 0.73437,-1.04688q0.25,-0.60937 0.25,-1.35937q0,-0.82813 -0.375,-1.34375q-0.35937,-0.53125 -0.96875,-0.875q-0.60937,-0.35938 -1.39062,-0.60938q-0.78125,-0.25 -1.59375,-0.5q-0.8125,-0.26562 -1.59375,-0.60937q-0.78125,-0.34375 -1.39063,-0.89063q-0.60937,-0.54687 -0.98437,-1.35937q-0.375,-0.8125 -0.375,-2.01563q0,-0.96875 0.375,-1.85937q0.375,-0.90625 1.07812,-1.59375q0.71875,-0.70313 1.76563,-1.10938q1.04687,-0.42187 2.39062,-0.42187q1.53125,0 2.78125,0.48437q1.25,0.46875 2.1875,1.39063l-0.59375,1.15625zm8.9708,2.28125q1.40625,0 2.53125,0.46875q1.14062,0.46875 1.92187,1.32812q0.79688,0.85938 1.21875,2.09375q0.42188,1.21875 0.42188,2.71875q0,1.51563 -0.42188,2.73438q-0.42187,1.21875 -1.21875,2.07812q-0.78125,0.85938 -1.92187,1.32813q-1.125,0.45312 -2.53125,0.45312q-1.40625,0 -2.54688,-0.45312q-1.125,-0.46875 -1.9375,-1.32813q-0.79687,-0.85937 -1.23437,-2.07812q-0.42188,-1.21875 -0.42188,-2.73438q0,-1.5 0.42188,-2.71875q0.4375,-1.23437 1.23437,-2.09375q0.8125,-0.85937 1.9375,-1.32812q1.14063,-0.46875 2.54688,-0.46875zm0,11.45312q1.89062,0 2.82812,-1.26562q0.9375,-1.28125 0.9375,-3.5625q0,-2.29688 -0.9375,-3.57813q-0.9375,-1.28125 -2.82812,-1.28125q-0.96875,0 -1.6875,0.34375q-0.70313,0.32813 -1.1875,0.95313q-0.46875,0.60937 -0.70313,1.51562q-0.23437,0.90625 -0.23437,2.04688q0,1.14062 0.23437,2.04687q0.23438,0.89063 0.70313,1.51563q0.48437,0.60937 1.1875,0.9375q0.71875,0.32812 1.6875,0.32812zm11.39496,-17.07812l0,18.65625l-2.25,0l0,-18.65625l2.25,0zm5.9215,5.82812l0,8.1875q0,1.45313 0.67188,2.25q0.67187,0.79688 2.03125,0.79688q0.98437,0 1.85937,-0.46875q0.875,-0.46875 1.60938,-1.3125l0,-9.45313l2.25,0l0,12.82813l-1.34375,0q-0.48438,0 -0.60938,-0.46875l-0.17187,-1.375q-0.84375,0.92187 -1.875,1.48437q-1.03125,0.5625 -2.375,0.5625q-1.0625,0 -1.875,-0.34375q-0.79688,-0.35937 -1.34375,-0.98437q-0.53125,-0.64063 -0.8125,-1.53125q-0.26563,-0.90625 -0.26563,-1.98438l0,-8.1875l2.25,0zm16.01996,13.03125q-1.51562,0 -2.34375,-0.84375q-0.8125,-0.85937 -0.8125,-2.45312l0,-7.84375l-1.54687,0q-0.20313,0 -0.34375,-0.125q-0.125,-0.125 -0.125,-0.375l0,-0.89063l2.09375,-0.26562l0.51562,-3.96875q0.03125,-0.1875 0.17188,-0.3125q0.14062,-0.125 0.35937,-0.125l1.14063,0l0,4.42187l3.67187,0l0,1.64063l-3.67187,0l0,7.70312q0,0.79688 0.39062,1.20313q0.39063,0.39062 1.01563,0.39062q0.34375,0 0.60937,-0.09375q0.26563,-0.10937 0.45313,-0.21875q0.1875,-0.10937 0.3125,-0.20312q0.14062,-0.09375 0.23437,-0.09375q0.1875,0 0.32813,0.21875l0.65625,1.0625q-0.59375,0.54687 -1.42188,0.85937q-0.8125,0.3125 -1.6875,0.3125zm8.07242,-13.03125l0,12.82813l-2.25,0l0,-12.82813l2.25,0zm0.5,-4.03125q0,0.32813 -0.14062,0.625q-0.125,0.28125 -0.34375,0.5q-0.21875,0.21875 -0.51563,0.34375q-0.28125,0.125 -0.625,0.125q-0.32812,0 -0.60937,-0.125q-0.28125,-0.125 -0.5,-0.34375q-0.21875,-0.21875 -0.35938,-0.5q-0.125,-0.29687 -0.125,-0.625q0,-0.32812 0.125,-0.625q0.14063,-0.29687 0.35938,-0.51562q0.21875,-0.21875 0.5,-0.34375q0.28125,-0.14063 0.60937,-0.14063q0.34375,0 0.625,0.14063q0.29688,0.125 0.51563,0.34375q0.21875,0.21875 0.34375,0.51562q0.14062,0.29688 0.14062,0.625zm8.67151,3.82813q1.40625,0 2.53125,0.46875q1.14062,0.46875 1.92187,1.32812q0.79688,0.85938 1.21875,2.09375q0.42188,1.21875 0.42188,2.71875q0,1.51563 -0.42188,2.73438q-0.42187,1.21875 -1.21875,2.07812q-0.78125,0.85938 -1.92187,1.32813q-1.125,0.45312 -2.53125,0.45312q-1.40625,0 -2.54688,-0.45312q-1.125,-0.46875 -1.9375,-1.32813q-0.79687,-0.85937 -1.23437,-2.07812q-0.42188,-1.21875 -0.42188,-2.73438q0,-1.5 0.42188,-2.71875q0.4375,-1.23437 1.23437,-2.09375q0.8125,-0.85937 1.9375,-1.32812q1.14063,-0.46875 2.54688,-0.46875zm0,11.45312q1.89062,0 2.82812,-1.26562q0.9375,-1.28125 0.9375,-3.5625q0,-2.29688 -0.9375,-3.57813q-0.9375,-1.28125 -2.82812,-1.28125q-0.96875,0 -1.6875,0.34375q-0.70313,0.32813 -1.1875,0.95313q-0.46875,0.60937 -0.70313,1.51562q-0.23437,0.90625 -0.23437,2.04688q0,1.14062 0.23437,2.04687q0.23438,0.89063 0.70313,1.51563q0.48437,0.60937 1.1875,0.9375q0.71875,0.32812 1.6875,0.32812zm8.87933,1.57813l0,-12.82813l1.34375,0q0.48438,0 0.60938,0.46875l0.17187,1.39063q0.84375,-0.92188 1.875,-1.48438q1.03125,-0.57812 2.39063,-0.57812q1.04687,0 1.84375,0.35937q0.8125,0.34375 1.34375,0.98438q0.54687,0.625 0.82812,1.53125q0.28125,0.90625 0.28125,1.98437l0,8.17188l-2.26562,0l0,-8.17188q0,-1.45312 -0.67188,-2.25q-0.65625,-0.8125 -2.01562,-0.8125q-1,0 -1.875,0.48438q-0.85938,0.48437 -1.59375,1.29687l0,9.45313l-2.26563,0zm21.42621,-10.71875q-0.14062,0.28125 -0.46875,0.28125q-0.1875,0 -0.4375,-0.14063q-0.23437,-0.14062 -0.57812,-0.3125q-0.34375,-0.17187 -0.82813,-0.3125q-0.48437,-0.14062 -1.14062,-0.14062q-0.5625,0 -1.03125,0.14062q-0.45313,0.14063 -0.78125,0.40625q-0.3125,0.25 -0.48438,0.59375q-0.17187,0.32813 -0.17187,0.71875q0,0.5 0.28125,0.82813q0.29687,0.32812 0.76562,0.5625q0.46875,0.23437 1.0625,0.42187q0.59375,0.1875 1.21875,0.40625q0.625,0.20313 1.21875,0.45313q0.59375,0.25 1.0625,0.64062q0.46875,0.375 0.75,0.92188q0.29688,0.54687 0.29688,1.32812q0,0.875 -0.32813,1.64063q-0.3125,0.75 -0.9375,1.29687q-0.60937,0.54688 -1.51562,0.875q-0.89063,0.3125 -2.07813,0.3125q-1.34375,0 -2.4375,-0.4375q-1.07812,-0.4375 -1.84375,-1.125l0.53125,-0.85937q0.10938,-0.15625 0.25,-0.25q0.14063,-0.09375 0.35938,-0.09375q0.23437,0 0.48437,0.1875q0.25,0.17187 0.60938,0.39062q0.35937,0.21875 0.875,0.39063q0.51562,0.17187 1.28125,0.17187q0.67187,0 1.15625,-0.17187q0.5,-0.17188 0.82812,-0.45313q0.32813,-0.29687 0.48438,-0.67187q0.15625,-0.39063 0.15625,-0.8125q0,-0.53125 -0.28125,-0.875q-0.28125,-0.35938 -0.75,-0.59375q-0.46875,-0.25 -1.07813,-0.4375q-0.59375,-0.1875 -1.21875,-0.39063q-0.625,-0.20312 -1.23437,-0.45312q-0.59375,-0.26563 -1.0625,-0.65625q-0.46875,-0.39063 -0.76563,-0.96875q-0.28125,-0.57813 -0.28125,-1.40625q0,-0.73438 0.29688,-1.40625q0.3125,-0.67188 0.89062,-1.1875q0.59375,-0.51563 1.4375,-0.8125q0.84375,-0.3125 1.9375,-0.3125q1.26563,0 2.26563,0.40625q1.01562,0.39062 1.75,1.09375l-0.51563,0.8125zm16.99011,8.9375q0.73438,0 1.34375,-0.0625q0.625,-0.07813 1.15625,-0.21875q0.54688,-0.14063 1.03125,-0.32813q0.48438,-0.20312 0.96875,-0.45312l0,-4l-2.8125,0q-0.25,0 -0.39062,-0.14063q-0.14063,-0.14062 -0.14063,-0.34375l0,-1.39062l5.5625,0l0,6.95312q-0.67187,0.5 -1.42187,0.875q-0.73438,0.35938 -1.57813,0.60938q-0.84375,0.25 -1.8125,0.35937q-0.95312,0.125 -2.07812,0.125q-1.98438,0 -3.64063,-0.67187q-1.64062,-0.6875 -2.82812,-1.90625q-1.1875,-1.21875 -1.85938,-2.92188q-0.65625,-1.71875 -0.65625,-3.76562q0,-2.07813 0.64063,-3.78125q0.65625,-1.71875 1.85937,-2.9375q1.21875,-1.23438 2.9375,-1.89063q1.71875,-0.67187 3.84375,-0.67187q1.07813,0 2,0.15625q0.92188,0.15625 1.71875,0.45312q0.79688,0.29688 1.45313,0.71875q0.67187,0.42188 1.26562,0.95313l-0.70312,1.125q-0.21875,0.32812 -0.54688,0.32812q-0.20312,0 -0.45312,-0.125q-0.3125,-0.1875 -0.70313,-0.4375q-0.39062,-0.25 -0.95312,-0.48437q-0.5625,-0.23438 -1.34375,-0.39063q-0.76563,-0.17187 -1.8125,-0.17187q-1.53125,0 -2.78125,0.5q-1.23438,0.5 -2.10938,1.4375q-0.875,0.92187 -1.34375,2.25q-0.46875,1.3125 -0.46875,2.96875q0,1.71875 0.48438,3.07812q0.5,1.34375 1.375,2.28125q0.89062,0.9375 2.10937,1.4375q1.21875,0.48438 2.6875,0.48438zm10.21585,1.78125l0,-18.65625l2.26563,0l0,7.67187q0.79687,-0.92187 1.82812,-1.48437q1.03125,-0.5625 2.375,-0.5625q1.10938,0 2,0.42187q0.90625,0.40625 1.53125,1.25q0.64063,0.82813 0.98438,2.04688q0.34375,1.21875 0.34375,2.8125q0,1.42187 -0.39063,2.64062q-0.375,1.21875 -1.09375,2.125q-0.70312,0.89063 -1.75,1.40625q-1.03125,0.5 -2.3125,0.5q-1.25,0 -2.125,-0.46875q-0.85937,-0.48437 -1.5,-1.34375l-0.10937,1.15625q-0.10938,0.48438 -0.59375,0.48438l-1.45313,0zm5.73438,-11.23438q-1.10938,0 -1.9375,0.51563q-0.82813,0.5 -1.53125,1.42187l0,6.20313q0.60937,0.84375 1.34375,1.1875q0.75,0.32812 1.65625,0.32812q1.79687,0 2.76562,-1.26562q0.96875,-1.28125 0.96875,-3.65625q0,-1.25 -0.23437,-2.14063q-0.21875,-0.90625 -0.64063,-1.48437q-0.40625,-0.57813 -1.01562,-0.84375q-0.60938,-0.26563 -1.375,-0.26563zm11.40845,3.65625l0,7.57813l-2.45313,0l0,-18.14063l5.125,0q1.73438,0 2.98438,0.34375q1.25,0.34375 2.0625,1q0.82812,0.65625 1.21875,1.59375q0.39062,0.9375 0.39062,2.07813q0,0.96875 -0.3125,1.8125q-0.29687,0.82812 -0.875,1.5q-0.57812,0.65625 -1.40625,1.125q-0.82812,0.46875 -1.875,0.70312q0.45313,0.26563 0.8125,0.78125l5.29688,7.20313l-2.1875,0q-0.67188,0 -0.98438,-0.51563l-4.71875,-6.48437q-0.20312,-0.3125 -0.46875,-0.4375q-0.25,-0.14063 -0.75,-0.14063l-1.85937,0zm0,-1.78125l2.5625,0q1.07812,0 1.89062,-0.25q0.82813,-0.26562 1.375,-0.73437q0.54688,-0.48438 0.82813,-1.14063q0.28125,-0.65625 0.28125,-1.45312q0,-1.625 -1.07813,-2.4375q-1.0625,-0.82813 -3.1875,-0.82813l-2.67187,0l0,6.84375z" fill-rule="nonzero" id="svg_4" stroke="null"/>
 </g>
</svg>