<svg width="400" height="192" xmlns="http://www.w3.org/2000/svg">
 <clipPath id="g70c2b9f50e_0_0.0">
  <path id="svg_1" clip-rule="nonzero" d="m0,0l960,0l0,540l-960,0l0,-540z"/>
 </clipPath>

 <g>
  <title>background</title>
  <rect fill="none" id="canvas_background" height="194" width="402" y="-1" x="-1"/>
 </g>
 <g>
  <title>Layer 1</title>
  <g stroke="null" id="svg_2" clip-path="url(#g70c2b9f50e_0_0.0)">
   <path stroke="null" id="svg_4" fill-rule="evenodd" d="m-18.34251,54.36351l469.60632,0l0,109.35432l-469.60632,0l0,-109.35432z" fill-opacity="0" fill="#000000"/>
   <path stroke="null" id="svg_5" fill-rule="nonzero" d="m93.39185,116.31784l-23.4375,0l0,-48.75l-45.70313,0l0,48.75l-23.43748,0l0,-113.75l23.43748,0l0,46.09375l45.70313,0l0,-46.09375l23.4375,0l0,113.75zm88.90625,-49.29688l-45,0l0,30.46875l52.8125,0l0,18.82813l-76.25,0l0,-113.75l76.09375,0l0,18.98437l-52.65625,0l0,27.10938l45,0l0,18.35937zm115,-5q0,16.79688 -5.9375,29.45313q-5.9375,12.65625 -17,19.53125q-11.04688,6.875 -25.34375,6.875q-14.14063,0 -25.23438,-6.79688q-11.09375,-6.79687 -17.1875,-19.40625q-6.09375,-12.625 -6.17187,-29.03125l0,-5.625q0,-16.79687 6.04687,-29.5625q6.0625,-12.78125 17.10938,-19.60937q11.0625,-6.84375 25.28125,-6.84375q14.21875,0 25.26562,6.84375q11.0625,6.82812 17.10938,19.60937q6.0625,12.76563 6.0625,29.48438l0,5.07812zm-23.75,-5.15625q0,-17.89062 -6.40625,-27.1875q-6.40625,-9.29687 -18.28125,-9.29687q-11.79688,0 -18.20313,9.1875q-6.40625,9.17187 -6.48437,26.90625l0,5.54687q0,17.42188 6.40625,27.03125q6.40625,9.60938 18.4375,9.60938q11.79687,0 18.125,-9.25q6.32812,-9.26563 6.40625,-27l0,-5.54688zm40.78125,59.45313l0,-113.75l39.84375,0q20.70312,0 31.40625,7.9375q10.70312,7.92187 10.70312,23.23437q0,8.35938 -4.29687,14.73438q-4.29688,6.35937 -11.95313,9.32812q8.75,2.1875 13.78125,8.82813q5.04688,6.64062 5.04688,16.25q0,16.40625 -10.46875,24.84375q-10.46875,8.4375 -29.84375,8.59375l-44.21875,0zm23.4375,-49.53125l0,30.70312l20.07812,0q8.28125,0 12.92188,-3.9375q4.65625,-3.95312 4.65625,-10.90625q0,-15.625 -16.17188,-15.85937l-21.48437,0zm0,-16.5625l17.34375,0q17.73437,-0.3125 17.73437,-14.14063q0,-7.73437 -4.5,-11.125q-4.48437,-3.40625 -14.17187,-3.40625l-16.40625,0l0,28.67188z" fill="#000000"/>
   <path stroke="null" id="svg_6" fill-rule="evenodd" d="m-10.9283,123.05124l513.8583,0l0,93.66928l-513.8583,0l0,-93.66928z" fill-opacity="0" fill="#000000"/>
   <path stroke="null" id="svg_7" fill-rule="nonzero" d="m11.22795,189.65125l-8.79688,0l0,-42.65625l8.79688,0l0,42.65625zm16.92772,-15.03125l0,15.03125l-8.78125,0l0,-42.65625l16.64062,0q4.79688,0 8.4375,1.76563q3.65625,1.75 5.60938,4.98437q1.96875,3.23438 1.96875,7.375q0,6.26563 -4.29688,9.89063q-4.28125,3.60937 -11.875,3.60937l-7.70312,0zm0,-7.125l7.85937,0q3.48438,0 5.3125,-1.64062q1.82813,-1.64063 1.82813,-4.6875q0,-3.125 -1.84375,-5.0625q-1.84375,-1.9375 -5.09375,-1.98438l-8.0625,0l0,13.375zm66.9707,10.96875q0,-2.5 -1.76563,-3.82812q-1.75,-1.32813 -6.32812,-2.8125q-4.5625,-1.48438 -7.21875,-2.92188q-7.26563,-3.92187 -7.26563,-10.5625q0,-3.46875 1.9375,-6.17187q1.95313,-2.71875 5.59375,-4.23438q3.65625,-1.53125 8.20313,-1.53125q4.5625,0 8.14062,1.65625q3.57813,1.65625 5.54688,4.6875q1.98437,3.01563 1.98437,6.84375l-8.79687,0q0,-2.92187 -1.84375,-4.54687q-1.84375,-1.625 -5.1875,-1.625q-3.21875,0 -5.01563,1.35937q-1.78125,1.35938 -1.78125,3.57813q0,2.09375 2.09375,3.5q2.09375,1.40625 6.17188,2.625q7.5,2.26562 10.92187,5.60937q3.4375,3.32813 3.4375,8.3125q0,5.53125 -4.1875,8.6875q-4.1875,3.15625 -11.28125,3.15625q-4.92187,0 -8.96875,-1.79687q-4.04687,-1.8125 -6.17187,-4.9375q-2.125,-3.14063 -2.125,-7.28125l8.82812,0q0,7.0625 8.4375,7.0625q3.125,0 4.875,-1.26563q1.76563,-1.28125 1.76563,-3.5625zm49.80664,-9.17187q0,6.29687 -2.23438,11.04687q-2.21875,4.73438 -6.35937,7.32813q-4.14063,2.57812 -9.5,2.57812q-5.3125,0 -9.46875,-2.54687q-4.15625,-2.5625 -6.45313,-7.28125q-2.28125,-4.73438 -2.3125,-10.89063l0,-2.10937q0,-6.29688 2.26563,-11.07813q2.28125,-4.79687 6.42187,-7.35937q4.15625,-2.57813 9.48438,-2.57813q5.32812,0 9.46875,2.57813q4.15625,2.5625 6.42187,7.35937q2.26563,4.78125 2.26563,11.04688l0,1.90625zm-8.90625,-1.9375q0,-6.70313 -2.40625,-10.1875q-2.39063,-3.5 -6.84375,-3.5q-4.42188,0 -6.82813,3.45312q-2.40625,3.4375 -2.4375,10.09375l0,2.07813q0,6.53125 2.40625,10.14062q2.40625,3.59375 6.92188,3.59375q4.42187,0 6.78125,-3.46875q2.375,-3.46875 2.40625,-10.125l0,-2.07812zm24.08203,15.23437l18.67188,0l0,7.0625l-27.45313,0l0,-42.65625l8.78125,0l0,35.59375zm55.28711,-35.59375l0,28.09375q0,7 -4.39062,11.07813q-4.375,4.07812 -11.95313,4.07812q-7.46875,0 -11.875,-3.95312q-4.39062,-3.96875 -4.46875,-10.875l0,-28.42188l8.78125,0l0,28.15625q0,4.1875 2,6.10938q2.01563,1.92187 5.5625,1.92187q7.40625,0 7.53125,-7.79687l0,-28.39063l8.8125,0zm39.32031,7.125l-13.0625,0l0,35.53125l-8.79687,0l0,-35.53125l-12.89063,0l0,-7.125l34.75,0l0,7.125zm14.35352,35.53125l-8.79688,0l0,-42.65625l8.79688,0l0,42.65625zm43.17776,-20.35937q0,6.29687 -2.23437,11.04687q-2.21875,4.73438 -6.35938,7.32813q-4.14062,2.57812 -9.5,2.57812q-5.3125,0 -9.46875,-2.54687q-4.15625,-2.5625 -6.45312,-7.28125q-2.28125,-4.73438 -2.3125,-10.89063l0,-2.10937q0,-6.29688 2.26562,-11.07813q2.28125,-4.79687 6.42188,-7.35937q4.15625,-2.57813 9.48437,-2.57813q5.32813,0 9.46875,2.57813q4.15625,2.5625 6.42188,7.35937q2.26562,4.78125 2.26562,11.04688l0,1.90625zm-8.90625,-1.9375q0,-6.70313 -2.40625,-10.1875q-2.39062,-3.5 -6.84375,-3.5q-4.42187,0 -6.82812,3.45312q-2.40625,3.4375 -2.4375,10.09375l0,2.07813q0,6.53125 2.40625,10.14062q2.40625,3.59375 6.92187,3.59375q4.42188,0 6.78125,-3.46875q2.375,-3.46875 2.40625,-10.125l0,-2.07812zm49.98828,22.29687l-8.79687,0l-17.10938,-28.0625l0,28.0625l-8.78125,0l0,-42.65625l8.78125,0l17.14063,28.125l0,-28.125l8.76562,0l0,42.65625zm29.78516,-11.1875q0,-2.5 -1.76562,-3.82812q-1.75,-1.32813 -6.32813,-2.8125q-4.5625,-1.48438 -7.21875,-2.92188q-7.26562,-3.92187 -7.26562,-10.5625q0,-3.46875 1.9375,-6.17187q1.95312,-2.71875 5.59375,-4.23438q3.65625,-1.53125 8.20312,-1.53125q4.5625,0 8.14063,1.65625q3.57812,1.65625 5.54687,4.6875q1.98438,3.01563 1.98438,6.84375l-8.79688,0q0,-2.92187 -1.84375,-4.54687q-1.84375,-1.625 -5.1875,-1.625q-3.21875,0 -5.01562,1.35937q-1.78125,1.35938 -1.78125,3.57813q0,2.09375 2.09375,3.5q2.09375,1.40625 6.17187,2.625q7.5,2.26562 10.92188,5.60937q3.4375,3.32813 3.4375,8.3125q0,5.53125 -4.1875,8.6875q-4.1875,3.15625 -11.28125,3.15625q-4.92188,0 -8.96875,-1.79687q-4.04688,-1.8125 -6.17188,-4.9375q-2.125,-3.14063 -2.125,-7.28125l8.82813,0q0,7.0625 8.4375,7.0625q3.125,0 4.875,-1.26563q1.76562,-1.28125 1.76562,-3.5625z" fill="#000000"/>
  </g>
 </g>
</svg>